<svg width="25" height="24" viewBox="0 0 25 24" fill="none" xmlns="http://www.w3.org/2000/svg">
<path d="M16.4889 7.45498C16.7004 7.25381 16.9818 7.1426 17.2738 7.14481C17.5658 7.14702 17.8455 7.26247 18.0539 7.46681C18.2624 7.67115 18.3832 7.9484 18.3909 8.24004C18.3986 8.53169 18.2926 8.81492 18.0953 9.02998L12.1049 16.515C12.0019 16.6258 11.8776 16.7148 11.7394 16.7765C11.6012 16.8383 11.4519 16.8715 11.3006 16.8743C11.1492 16.8771 10.9988 16.8494 10.8584 16.7928C10.718 16.7362 10.5905 16.6519 10.4834 16.545L6.51085 12.576C6.40022 12.473 6.31149 12.3488 6.24995 12.2108C6.1884 12.0728 6.15531 11.9238 6.15264 11.7728C6.14997 11.6217 6.17779 11.4717 6.23442 11.3316C6.29105 11.1915 6.37534 11.0643 6.48227 10.9574C6.58919 10.8506 6.71656 10.7664 6.85677 10.7098C6.99698 10.6532 7.14716 10.6254 7.29835 10.6281C7.44954 10.6308 7.59864 10.6638 7.73677 10.7253C7.87489 10.7868 7.9992 10.8754 8.10229 10.986L11.2461 14.1255L16.4603 7.48798C16.4697 7.47643 16.4798 7.46541 16.4904 7.45498H16.4889Z" fill="#FFFEFF"/>
</svg>
