<?xml version="1.0" encoding="UTF-8"?>
<svg xmlns="http://www.w3.org/2000/svg" xmlns:xlink="http://www.w3.org/1999/xlink" width="203pt" height="153pt" viewBox="0 0 203 153" version="1.1">
<defs>
<filter id="alpha" filterUnits="objectBoundingBox" x="0%" y="0%" width="100%" height="100%">
  <feColorMatrix type="matrix" in="SourceGraphic" values="0 0 0 0 1 0 0 0 0 1 0 0 0 0 1 0 0 0 1 0"/>
</filter>
<mask id="mask0">
  <g filter="url(#alpha)">
<rect x="0" y="0" width="203" height="153" style="fill:rgb(0%,0%,0%);fill-opacity:0.180392;stroke:none;"/>
  </g>
</mask>
<clipPath id="clip1">
  <rect x="0" y="0" width="203" height="153"/>
</clipPath>
<g id="surface5" clip-path="url(#clip1)">
<path style=" stroke:none;fill-rule:nonzero;fill:rgb(5.882353%,54.509804%,96.078431%);fill-opacity:1;" d="M 176.8125 147.769531 C 186.914062 143.953125 196.042969 135.792969 198.023438 125.171875 C 199.65625 116.410156 196.292969 107.519531 192.203125 99.59375 C 188.113281 91.667969 183.164062 84.011719 181.253906 75.308594 C 177.699219 59.125 185.03125 41.171875 178.066406 26.140625 C 175.972656 21.625 172.699219 17.734375 169.003906 14.417969 C 152.832031 -0.0273438 128.554688 -3.261719 107.84375 3.125 C 87.132812 9.511719 69.84375 24.425781 57.121094 41.976562 C 51.875 49.207031 47.3125 56.933594 41.59375 63.789062 C 33.96875 72.917969 24.074219 80.933594 20.761719 92.34375 C 18.355469 100.585938 19.808594 109.515625 22.671875 117.628906 C 27.074219 130.0625 46.050781 152.175781 55.082031 152.132812 C 75.210938 152.03125 113.832031 153.019531 132.488281 152.304688 C 146.46875 151.753906 162.179688 153.296875 176.8125 147.769531 Z M 176.8125 147.769531 "/>
</g>
<linearGradient id="linear0" gradientUnits="userSpaceOnUse" x1="270.74" y1="234.8" x2="202.24" y2="237.81" gradientTransform="matrix(0.477096,0,0,0.477096,2.633727,-14.050485)">
<stop offset="0.01" style="stop-color:rgb(0%,0%,0%);stop-opacity:1;"/>
<stop offset="1" style="stop-color:rgb(0%,0%,0%);stop-opacity:0;"/>
</linearGradient>
<linearGradient id="linear1" gradientUnits="userSpaceOnUse" x1="441.67" y1="443.69" x2="219.22" y2="238.19" gradientTransform="matrix(0.477096,0,0,0.477096,2.633727,-14.050485)">
<stop offset="0.01" style="stop-color:rgb(0%,0%,0%);stop-opacity:1;"/>
<stop offset="1" style="stop-color:rgb(0%,0%,0%);stop-opacity:0;"/>
</linearGradient>
<linearGradient id="linear2" gradientUnits="userSpaceOnUse" x1="204.74" y1="304.22" x2="206.43" y2="332.73" gradientTransform="matrix(0.477096,0,0,0.477096,4.556425,0)">
<stop offset="0.01" style="stop-color:rgb(0%,0%,0%);stop-opacity:1;"/>
<stop offset="1" style="stop-color:rgb(0%,0%,0%);stop-opacity:0;"/>
</linearGradient>
<linearGradient id="linear3" gradientUnits="userSpaceOnUse" x1="259.23" y1="154.67" x2="253.39" y2="200.4" gradientTransform="matrix(0.477096,0,0,0.477096,2.633727,-14.050485)">
<stop offset="0.01" style="stop-color:rgb(0%,0%,0%);stop-opacity:1;"/>
<stop offset="1" style="stop-color:rgb(0%,0%,0%);stop-opacity:0;"/>
</linearGradient>
<linearGradient id="linear4" gradientUnits="userSpaceOnUse" x1="253.75" y1="196.7" x2="274.92" y2="216.74" gradientTransform="matrix(0.477096,0,0,0.477096,2.633727,-14.050485)">
<stop offset="0.02" style="stop-color:rgb(100%,100%,100%);stop-opacity:0;"/>
<stop offset="0.58" style="stop-color:rgb(100%,100%,100%);stop-opacity:0.388235;"/>
<stop offset="1" style="stop-color:rgb(100%,100%,100%);stop-opacity:1;"/>
</linearGradient>
<linearGradient id="linear5" gradientUnits="userSpaceOnUse" x1="250.41" y1="206.47" x2="229.94" y2="207.88" gradientTransform="matrix(0.477096,0,0,0.477096,2.633727,-14.050485)">
<stop offset="0.02" style="stop-color:rgb(100%,100%,100%);stop-opacity:0;"/>
<stop offset="0.58" style="stop-color:rgb(100%,100%,100%);stop-opacity:0.388235;"/>
<stop offset="1" style="stop-color:rgb(100%,100%,100%);stop-opacity:1;"/>
</linearGradient>
<linearGradient id="linear6" gradientUnits="userSpaceOnUse" x1="245.56" y1="145.01" x2="143.94" y2="324.55" gradientTransform="matrix(0.477096,0,0,0.477096,2.633727,-14.050485)">
<stop offset="0.01" style="stop-color:rgb(0%,0%,0%);stop-opacity:1;"/>
<stop offset="1" style="stop-color:rgb(0%,0%,0%);stop-opacity:0;"/>
</linearGradient>
<linearGradient id="linear7" gradientUnits="userSpaceOnUse" x1="181.28" y1="387.2" x2="119.18" y2="214.44" gradientTransform="matrix(0.477096,0,0,0.477096,2.633727,-14.050485)">
<stop offset="0.01" style="stop-color:rgb(0%,0%,0%);stop-opacity:1;"/>
<stop offset="0.09" style="stop-color:rgb(0%,0%,0%);stop-opacity:0.819608;"/>
<stop offset="1" style="stop-color:rgb(0%,0%,0%);stop-opacity:0;"/>
</linearGradient>
<linearGradient id="linear8" gradientUnits="userSpaceOnUse" x1="246.99" y1="65.36" x2="249.06" y2="87" gradientTransform="matrix(0.477096,0,0,0.477096,2.633727,-14.050485)">
<stop offset="0.01" style="stop-color:rgb(0%,0%,0%);stop-opacity:1;"/>
<stop offset="1" style="stop-color:rgb(0%,0%,0%);stop-opacity:0;"/>
</linearGradient>
<linearGradient id="linear9" gradientUnits="userSpaceOnUse" x1="224.6" y1="86.53" x2="214.15" y2="127.47" gradientTransform="matrix(0.477096,0,0,0.477096,4.556425,0)">
<stop offset="0.01" style="stop-color:rgb(0%,0%,0%);stop-opacity:1;"/>
<stop offset="1" style="stop-color:rgb(0%,0%,0%);stop-opacity:0;"/>
</linearGradient>
<linearGradient id="linear10" gradientUnits="userSpaceOnUse" x1="271.45" y1="94.82" x2="254.52" y2="108.37" gradientTransform="matrix(0.477096,0,0,0.477096,2.633727,-14.050485)">
<stop offset="0.01" style="stop-color:rgb(0%,0%,0%);stop-opacity:1;"/>
<stop offset="1" style="stop-color:rgb(0%,0%,0%);stop-opacity:0;"/>
</linearGradient>
<linearGradient id="linear11" gradientUnits="userSpaceOnUse" x1="285.59" y1="107.76" x2="271.24" y2="110.63" gradientTransform="matrix(0.477096,0,0,0.477096,4.556425,0)">
<stop offset="0.01" style="stop-color:rgb(0%,0%,0%);stop-opacity:1;"/>
<stop offset="1" style="stop-color:rgb(0%,0%,0%);stop-opacity:0;"/>
</linearGradient>
<linearGradient id="linear12" gradientUnits="userSpaceOnUse" x1="291.6" y1="88.55" x2="259.14" y2="102.67" gradientTransform="matrix(0.477096,0,0,0.477096,2.633727,-14.050485)">
<stop offset="0.01" style="stop-color:rgb(0%,0%,0%);stop-opacity:1;"/>
<stop offset="1" style="stop-color:rgb(0%,0%,0%);stop-opacity:0;"/>
</linearGradient>
<mask id="mask1">
  <g filter="url(#alpha)">
<rect x="0" y="0" width="203" height="153" style="fill:rgb(0%,0%,0%);fill-opacity:0.45098;stroke:none;"/>
  </g>
</mask>
<clipPath id="clip2">
  <rect x="0" y="0" width="203" height="153"/>
</clipPath>
<g id="surface8" clip-path="url(#clip2)">
<path style=" stroke:none;fill-rule:nonzero;fill:rgb(5.882353%,54.509804%,96.078431%);fill-opacity:1;" d="M 12.019531 2.460938 L 81.976562 2.460938 C 86.097656 2.460938 89.4375 5.800781 89.4375 9.921875 L 89.4375 92.070312 C 89.4375 96.191406 86.097656 99.53125 81.976562 99.53125 L 12.019531 99.53125 C 7.898438 99.53125 4.554688 96.191406 4.554688 92.070312 L 4.554688 9.921875 C 4.554688 5.800781 7.898438 2.460938 12.019531 2.460938 Z M 12.019531 2.460938 "/>
</g>
<linearGradient id="linear13" gradientUnits="userSpaceOnUse" x1="58.42" y1="67.19" x2="52.45" y2="186.54" gradientTransform="matrix(0.477096,0,0,0.477096,4.556425,0)">
<stop offset="0.02" style="stop-color:rgb(100%,100%,100%);stop-opacity:0;"/>
<stop offset="0.58" style="stop-color:rgb(100%,100%,100%);stop-opacity:0.388235;"/>
<stop offset="0.68" style="stop-color:rgb(100%,100%,100%);stop-opacity:0.678431;"/>
<stop offset="1" style="stop-color:rgb(100%,100%,100%);stop-opacity:1;"/>
</linearGradient>
<mask id="mask2">
  <g filter="url(#alpha)">
<rect x="0" y="0" width="203" height="153" style="fill:rgb(0%,0%,0%);fill-opacity:0.509804;stroke:none;"/>
  </g>
</mask>
<clipPath id="clip3">
  <rect x="0" y="0" width="203" height="153"/>
</clipPath>
<g id="surface11" clip-path="url(#clip3)">
<path style=" stroke:none;fill-rule:nonzero;fill:rgb(5.882353%,54.509804%,96.078431%);fill-opacity:1;" d="M 13.753906 51.816406 L 68.003906 51.816406 L 68.003906 54.871094 L 13.753906 54.871094 Z M 13.753906 51.816406 "/>
</g>
<mask id="mask3">
  <g filter="url(#alpha)">
<rect x="0" y="0" width="203" height="153" style="fill:rgb(0%,0%,0%);fill-opacity:0.509804;stroke:none;"/>
  </g>
</mask>
<clipPath id="clip4">
  <rect x="0" y="0" width="203" height="153"/>
</clipPath>
<g id="surface14" clip-path="url(#clip4)">
<path style=" stroke:none;fill-rule:nonzero;fill:rgb(5.882353%,54.509804%,96.078431%);fill-opacity:1;" d="M 35.316406 32.078125 L 77.78125 32.078125 L 77.78125 34.792969 L 35.316406 34.792969 Z M 35.316406 32.078125 "/>
</g>
<mask id="mask4">
  <g filter="url(#alpha)">
<rect x="0" y="0" width="203" height="153" style="fill:rgb(0%,0%,0%);fill-opacity:0.509804;stroke:none;"/>
  </g>
</mask>
<clipPath id="clip5">
  <rect x="0" y="0" width="203" height="153"/>
</clipPath>
<g id="surface17" clip-path="url(#clip5)">
<path style=" stroke:none;fill-rule:nonzero;fill:rgb(5.882353%,54.509804%,96.078431%);fill-opacity:1;" d="M 14.496094 36.753906 L 22.917969 36.753906 L 22.917969 39.46875 L 14.496094 39.46875 Z M 14.496094 36.753906 "/>
</g>
<mask id="mask5">
  <g filter="url(#alpha)">
<rect x="0" y="0" width="203" height="153" style="fill:rgb(0%,0%,0%);fill-opacity:0.509804;stroke:none;"/>
  </g>
</mask>
<clipPath id="clip6">
  <rect x="0" y="0" width="203" height="153"/>
</clipPath>
<g id="surface20" clip-path="url(#clip6)">
<path style=" stroke:none;fill-rule:nonzero;fill:rgb(5.882353%,54.509804%,96.078431%);fill-opacity:1;" d="M 45.449219 41.574219 L 83.320312 41.574219 L 83.320312 44.289062 L 45.449219 44.289062 Z M 45.449219 41.574219 "/>
</g>
<linearGradient id="linear14" gradientUnits="userSpaceOnUse" x1="152.92" y1="132.64" x2="129.21" y2="189.38" gradientTransform="matrix(0.477096,0,0,0.477096,2.633727,-14.050485)">
<stop offset="0.02" style="stop-color:rgb(100%,100%,100%);stop-opacity:0;"/>
<stop offset="0.58" style="stop-color:rgb(100%,100%,100%);stop-opacity:0.388235;"/>
<stop offset="0.68" style="stop-color:rgb(100%,100%,100%);stop-opacity:0.678431;"/>
<stop offset="1" style="stop-color:rgb(100%,100%,100%);stop-opacity:1;"/>
</linearGradient>
<linearGradient id="linear15" gradientUnits="userSpaceOnUse" x1="221.66" y1="123.38" x2="223.73" y2="93.83" gradientTransform="matrix(0.477096,0,0,0.477096,2.633727,-14.050485)">
<stop offset="0.01" style="stop-color:rgb(0%,0%,0%);stop-opacity:1;"/>
<stop offset="1" style="stop-color:rgb(0%,0%,0%);stop-opacity:0;"/>
</linearGradient>
<linearGradient id="linear16" gradientUnits="userSpaceOnUse" x1="262.03" y1="150.04" x2="272.33" y2="171.21" gradientTransform="matrix(0.477096,0,0,0.477096,2.633727,-14.050485)">
<stop offset="0.02" style="stop-color:rgb(100%,100%,100%);stop-opacity:0;"/>
<stop offset="0.58" style="stop-color:rgb(100%,100%,100%);stop-opacity:0.388235;"/>
<stop offset="0.68" style="stop-color:rgb(100%,100%,100%);stop-opacity:0.678431;"/>
<stop offset="1" style="stop-color:rgb(100%,100%,100%);stop-opacity:1;"/>
</linearGradient>
<linearGradient id="linear17" gradientUnits="userSpaceOnUse" x1="251.05" y1="156.41" x2="238.63" y2="181.44" gradientTransform="matrix(0.477096,0,0,0.477096,2.633727,-14.050485)">
<stop offset="0.01" style="stop-color:rgb(0%,0%,0%);stop-opacity:1;"/>
<stop offset="1" style="stop-color:rgb(0%,0%,0%);stop-opacity:0;"/>
</linearGradient>
</defs>
<g id="surface1">
<use xlink:href="#surface5" mask="url(#mask0)"/>
<path style=" stroke:none;fill-rule:nonzero;fill:rgb(94.509804%,68.627451%,54.901961%);fill-opacity:1;" d="M 90.527344 131.019531 C 90.050781 132.378906 89.632812 133.941406 90.324219 135.203125 C 90.785156 135.910156 91.410156 136.496094 92.140625 136.914062 L 98.726562 141.386719 C 99.988281 142.246094 101.332031 143.128906 102.847656 143.242188 C 104.363281 143.359375 106.085938 142.390625 106.214844 140.859375 C 106.367188 139.105469 104.53125 137.910156 103.671875 136.375 C 102.546875 134.359375 103.167969 131.863281 103.753906 129.632812 C 105.234375 124.011719 106.316406 118.296875 106.988281 112.523438 C 105.640625 111.96875 101.707031 109.492188 100.308594 109.902344 C 98.734375 110.382812 97.3125 114.785156 96.613281 116.21875 C 94.242188 121.003906 92.207031 125.949219 90.527344 131.019531 Z M 90.527344 131.019531 "/>
<path style=" stroke:none;fill-rule:nonzero;fill:rgb(100%,100%,100%);fill-opacity:1;" d="M 103.15625 93.257812 C 101.449219 98.109375 99.636719 102.976562 96.898438 107.335938 C 96.800781 107.464844 96.746094 107.621094 96.75 107.78125 C 96.792969 107.933594 96.886719 108.0625 97.019531 108.152344 C 99.769531 110.5625 102.742188 113.078125 106.363281 113.597656 C 106.601562 113.652344 106.847656 113.628906 107.070312 113.535156 C 107.277344 113.386719 107.433594 113.171875 107.507812 112.929688 C 109.816406 107.582031 110.632812 101.722656 110.558594 95.929688 C 110.507812 93.035156 110.277344 90.148438 109.871094 87.285156 C 109.773438 86.589844 109.722656 83.496094 109.117188 83.132812 C 108.195312 82.589844 107.183594 84.488281 106.785156 85.085938 C 105.125 87.570312 104.140625 90.433594 103.15625 93.257812 Z M 103.15625 93.257812 "/>
<path style=" stroke:none;fill-rule:nonzero;fill:url(#linear0);" d="M 110.644531 84.011719 C 110.644531 84.011719 108.492188 84.816406 106.742188 90.878906 C 104.988281 96.9375 100.8125 111.621094 100.8125 111.621094 C 100.8125 111.621094 107.273438 114.851562 108.894531 113.640625 C 110.511719 112.425781 110.644531 84.011719 110.644531 84.011719 Z M 110.644531 84.011719 "/>
<path style=" stroke:none;fill-rule:nonzero;fill:rgb(100%,100%,100%);fill-opacity:1;" d="M 128.984375 77.769531 C 132.503906 77.660156 136.066406 77.832031 139.457031 78.789062 C 142.84375 79.742188 146.0625 81.546875 148.285156 84.277344 C 150.75 87.304688 151.828125 91.257812 152.074219 95.148438 C 152.324219 99.035156 151.808594 102.933594 151.417969 106.816406 C 150.5 115.90625 150.257812 125.050781 150.691406 134.179688 C 150.796875 136.363281 152.046875 147.769531 150.507812 149.332031 C 149.554688 150.3125 151.464844 151.296875 150.105469 151.621094 C 138.988281 154.292969 119.015625 152.980469 108.492188 148.523438 C 105.816406 147.390625 103.128906 145.808594 101.8125 143.222656 C 100.382812 140.421875 104.246094 129.320312 104.707031 126.207031 C 106.109375 116.699219 107.121094 107.140625 107.742188 97.53125 C 108.015625 93.28125 107.699219 88.703125 108.574219 84.527344 C 109.207031 81.496094 111.160156 80.671875 113.972656 79.929688 C 118.878906 78.652344 123.914062 77.929688 128.984375 77.769531 Z M 128.984375 77.769531 "/>
<path style=" stroke:none;fill-rule:nonzero;fill:url(#linear1);" d="M 138.128906 127.507812 C 137.761719 129.441406 137.28125 131.460938 135.957031 132.917969 C 134.914062 133.964844 133.632812 134.746094 132.226562 135.199219 C 125.597656 137.699219 118.035156 137.308594 111.679688 140.449219 C 111.230469 140.644531 110.816406 140.914062 110.457031 141.246094 C 109.230469 142.457031 109.574219 144.585938 110.546875 146.015625 C 112.710938 149.179688 116.914062 150.066406 120.707031 150.652344 C 129.800781 152.082031 139.082031 153.253906 148.171875 151.789062 C 148.667969 151.753906 149.140625 151.570312 149.53125 151.269531 C 149.84375 150.902344 150.046875 150.457031 150.109375 149.980469 C 152.171875 140.828125 150.546875 131.300781 150.507812 121.921875 C 150.507812 116.511719 150.988281 111.097656 150.621094 105.699219 C 150.433594 102.34375 149.734375 99.03125 148.550781 95.886719 C 147.703125 93.75 145.234375 89.03125 143.75 93.410156 C 141.390625 100.371094 140.714844 107.875 139.867188 115.132812 C 139.402344 119.269531 138.90625 123.410156 138.128906 127.507812 Z M 138.128906 127.507812 "/>
<path style=" stroke:none;fill-rule:nonzero;fill:rgb(5.882353%,54.509804%,96.078431%);fill-opacity:1;" d="M 63.863281 144.285156 L 140.972656 144.285156 C 143.136719 144.285156 144.890625 146.039062 144.890625 148.199219 C 144.890625 150.363281 143.136719 152.117188 140.972656 152.117188 L 63.863281 152.117188 C 61.699219 152.117188 59.949219 150.363281 59.949219 148.199219 C 59.949219 146.039062 61.699219 144.285156 63.863281 144.285156 Z M 63.863281 144.285156 "/>
<path style=" stroke:none;fill-rule:nonzero;fill:url(#linear2);" d="M 63.863281 144.285156 L 140.972656 144.285156 C 143.136719 144.285156 144.890625 146.039062 144.890625 148.199219 C 144.890625 150.363281 143.136719 152.117188 140.972656 152.117188 L 63.863281 152.117188 C 61.699219 152.117188 59.949219 150.363281 59.949219 148.199219 C 59.949219 146.039062 61.699219 144.285156 63.863281 144.285156 Z M 63.863281 144.285156 "/>
<path style=" stroke:none;fill-rule:nonzero;fill:rgb(94.509804%,68.627451%,54.901961%);fill-opacity:1;" d="M 120.476562 85.183594 C 118.898438 84.933594 118.011719 83.34375 118.714844 79.519531 C 118.792969 79.09375 118.890625 78.683594 119.007812 78.273438 C 119.007812 78.195312 119.050781 78.121094 119.070312 78.042969 C 119.242188 77.453125 119.4375 76.859375 119.628906 76.273438 C 120.160156 74.863281 120.4375 73.375 120.457031 71.871094 C 120.414062 70.773438 120.328125 69.632812 120.734375 68.621094 C 121.125 67.761719 121.734375 67.023438 122.503906 66.480469 C 124.207031 65.167969 129.183594 62.699219 130.136719 65.957031 C 130.5625 67.351562 130.253906 68.972656 130.234375 70.398438 C 130.136719 72.445312 130.511719 74.484375 131.332031 76.359375 C 132.371094 78.449219 124.355469 85.804688 120.476562 85.183594 Z M 120.476562 85.183594 "/>
<path style=" stroke:none;fill-rule:nonzero;fill:url(#linear3);" d="M 119.355469 77.414062 C 119.355469 77.414062 128.152344 74.074219 129.851562 68.792969 L 120.476562 71.859375 C 120.476562 71.859375 120.253906 76.691406 119.355469 77.414062 Z M 119.355469 77.414062 "/>
<path style=" stroke:none;fill-rule:nonzero;fill:rgb(100%,100%,100%);fill-opacity:1;" d="M 143.207031 88.835938 C 142.308594 98.816406 143.960938 108.863281 148.015625 118.027344 C 148.132812 118.367188 148.335938 118.671875 148.601562 118.910156 C 149.027344 119.175781 149.53125 119.300781 150.03125 119.265625 C 153.957031 119.347656 157.796875 118.117188 160.9375 115.761719 C 161.894531 115.042969 162.789062 114.121094 162.871094 113 C 162.875 112.398438 162.753906 111.804688 162.523438 111.25 C 160.085938 104.171875 157.242188 97.238281 154.007812 90.492188 C 152.804688 87.992188 151.191406 85.0625 148.28125 83.960938 C 144.78125 82.636719 143.449219 86.222656 143.207031 88.835938 Z M 143.207031 88.835938 "/>
<path style=" stroke:none;fill-rule:nonzero;fill:rgb(5.882353%,54.509804%,96.078431%);fill-opacity:1;" d="M 126.160156 94.542969 C 128.769531 91.789062 130.679688 88.464844 132.570312 85.175781 C 133.71875 83.171875 134.898438 81.078125 135.0625 78.769531 C 135.101562 78.507812 135.0625 78.238281 134.941406 78 C 134.828125 77.835938 134.675781 77.695312 134.503906 77.59375 L 130.921875 75.167969 C 130.859375 77.367188 129.277344 79.253906 127.476562 80.519531 C 125.566406 81.875 120.105469 83.359375 121.273438 86.167969 C 121.5625 86.878906 125.851562 94.859375 126.160156 94.542969 Z M 126.160156 94.542969 "/>
<path style=" stroke:none;fill-rule:nonzero;fill:rgb(5.882353%,54.509804%,96.078431%);fill-opacity:1;" d="M 120.476562 85.183594 C 119.398438 87.304688 118.203125 89.359375 116.894531 91.34375 C 116.386719 92.113281 115.820312 92.910156 114.984375 93.253906 C 114.878906 93.308594 114.753906 93.324219 114.636719 93.300781 C 114.425781 93.230469 114.378906 92.953125 114.363281 92.734375 C 114.1875 89.0625 114.015625 85.332031 114.914062 81.761719 C 115.199219 80.492188 115.722656 79.292969 116.460938 78.226562 C 116.71875 77.882812 118.777344 76.402344 119.644531 76.246094 C 119.457031 76.832031 119.261719 77.421875 119.089844 78.015625 C 119.058594 78.070312 119.039062 78.128906 119.03125 78.191406 C 119.03125 78.191406 119.03125 78.226562 119.03125 78.242188 C 118.917969 78.652344 118.816406 79.0625 118.738281 79.488281 C 118.023438 83.34375 118.910156 84.933594 120.476562 85.183594 Z M 120.476562 85.183594 "/>
<path style=" stroke:none;fill-rule:nonzero;fill:url(#linear4);" d="M 126.160156 94.542969 C 128.769531 91.789062 130.679688 88.464844 132.570312 85.175781 C 133.71875 83.171875 134.898438 81.078125 135.0625 78.769531 C 135.101562 78.507812 135.0625 78.238281 134.941406 78 C 134.828125 77.835938 134.675781 77.695312 134.503906 77.59375 L 130.921875 75.167969 C 130.859375 77.367188 129.277344 79.253906 127.476562 80.519531 C 125.566406 81.875 120.105469 83.359375 121.273438 86.167969 C 121.5625 86.878906 125.851562 94.859375 126.160156 94.542969 Z M 126.160156 94.542969 "/>
<path style=" stroke:none;fill-rule:nonzero;fill:url(#linear5);" d="M 120.476562 85.183594 C 119.398438 87.304688 118.203125 89.359375 116.894531 91.34375 C 116.386719 92.113281 115.820312 92.910156 114.984375 93.253906 C 114.878906 93.308594 114.753906 93.324219 114.636719 93.300781 C 114.425781 93.230469 114.378906 92.953125 114.363281 92.734375 C 114.1875 89.0625 114.015625 85.332031 114.914062 81.761719 C 115.199219 80.492188 115.722656 79.292969 116.460938 78.226562 C 116.71875 77.882812 118.777344 76.402344 119.644531 76.246094 C 119.457031 76.832031 119.261719 77.421875 119.089844 78.015625 C 119.058594 78.070312 119.039062 78.128906 119.03125 78.191406 C 119.03125 78.191406 119.03125 78.226562 119.03125 78.242188 C 118.917969 78.652344 118.816406 79.0625 118.738281 79.488281 C 118.023438 83.34375 118.910156 84.933594 120.476562 85.183594 Z M 120.476562 85.183594 "/>
<path style=" stroke:none;fill-rule:nonzero;fill:rgb(94.509804%,68.627451%,54.901961%);fill-opacity:1;" d="M 146.546875 146.078125 L 167.441406 142.085938 C 168.675781 141.84375 169.964844 141.605469 170.945312 140.796875 C 172.285156 139.71875 172.757812 137.828125 172.5625 136.117188 C 172.367188 134.402344 171.605469 132.8125 170.851562 131.257812 C 167.886719 125.113281 161.863281 114.082031 161.828125 114.726562 C 158.171875 115.5 155.148438 115.539062 152.007812 117.546875 C 151.46875 117.839844 151.011719 118.265625 150.679688 118.78125 C 149.425781 121.167969 152.855469 124.652344 154.019531 126.464844 C 154.46875 127.042969 154.765625 127.722656 154.890625 128.445312 C 154.914062 128.953125 154.820312 129.460938 154.613281 129.925781 C 153.480469 132.703125 149.457031 134.320312 146.980469 135.75 C 143.742188 137.707031 140.113281 138.925781 136.347656 139.316406 C 133.429688 139.566406 130.449219 139.1875 127.59375 139.839844 C 124.054688 140.683594 121.054688 143.023438 119.375 146.253906 C 121.074219 147.332031 123.28125 146.707031 125.238281 146.214844 C 128.863281 145.316406 132.609375 145.015625 136.332031 145.324219 C 138.746094 145.527344 145.398438 148.324219 146.546875 146.078125 Z M 146.546875 146.078125 "/>
<path style=" stroke:none;fill-rule:nonzero;fill:rgb(5.882353%,54.509804%,96.078431%);fill-opacity:1;" d="M 114.234375 152.121094 L 55.074219 152.121094 L 39.46875 112.523438 C 39.039062 111.449219 39.171875 110.234375 39.820312 109.277344 C 40.46875 108.320312 41.550781 107.75 42.703125 107.753906 L 89.144531 107.753906 C 93.75 107.75 97.882812 110.5625 99.570312 114.847656 Z M 114.234375 152.121094 "/>
<path style=" stroke:none;fill-rule:nonzero;fill:url(#linear6);" d="M 114.234375 152.121094 L 55.074219 152.121094 L 39.46875 112.523438 C 39.039062 111.449219 39.171875 110.234375 39.820312 109.277344 C 40.46875 108.320312 41.550781 107.75 42.703125 107.753906 L 89.144531 107.753906 C 93.75 107.75 97.882812 110.5625 99.570312 114.847656 Z M 114.234375 152.121094 "/>
<path style=" stroke:none;fill-rule:nonzero;fill:url(#linear7);" d="M 111.230469 152.164062 L 55.019531 152.164062 L 40.191406 114.566406 C 39.789062 113.546875 39.917969 112.398438 40.53125 111.492188 C 41.148438 110.589844 42.167969 110.046875 43.261719 110.046875 L 87.375 110.046875 C 91.746094 110.050781 95.671875 112.722656 97.28125 116.789062 Z M 111.230469 152.164062 "/>
<path style=" stroke:none;fill-rule:nonzero;fill:rgb(5.882353%,54.509804%,96.078431%);fill-opacity:1;" d="M 118.566406 21.488281 C 120 20.648438 121.429688 19.792969 123.046875 19.480469 C 124.664062 19.164062 126.863281 19.355469 127.957031 20.578125 C 125.09375 20.777344 122.445312 22.175781 120.664062 24.425781 C 120.582031 24.570312 120.449219 24.683594 120.296875 24.742188 C 120.164062 24.757812 120.027344 24.730469 119.910156 24.671875 C 119.25 24.421875 114.316406 25.546875 114.03125 24.953125 C 114.046875 24.953125 117.960938 21.855469 118.566406 21.488281 Z M 118.566406 21.488281 "/>
<path style=" stroke:none;fill-rule:nonzero;fill:url(#linear8);" d="M 118.566406 21.488281 C 120 20.648438 121.429688 19.792969 123.046875 19.480469 C 124.664062 19.164062 126.863281 19.355469 127.957031 20.578125 C 125.09375 20.777344 122.445312 22.175781 120.664062 24.425781 C 120.582031 24.570312 120.449219 24.683594 120.296875 24.742188 C 120.164062 24.757812 120.027344 24.730469 119.910156 24.671875 C 119.25 24.421875 114.316406 25.546875 114.03125 24.953125 C 114.046875 24.953125 117.960938 21.855469 118.566406 21.488281 Z M 118.566406 21.488281 "/>
<path style=" stroke:none;fill-rule:nonzero;fill:rgb(5.882353%,54.509804%,96.078431%);fill-opacity:1;" d="M 113.695312 50.734375 C 113.695312 46.792969 111.105469 43.597656 107.90625 43.597656 C 104.707031 43.597656 102.113281 46.792969 102.113281 50.734375 C 102.113281 54.675781 104.707031 57.871094 107.90625 57.871094 C 111.105469 57.871094 113.695312 54.675781 113.695312 50.734375 Z M 113.695312 50.734375 "/>
<path style=" stroke:none;fill-rule:nonzero;fill:rgb(5.882353%,54.509804%,96.078431%);fill-opacity:1;" d="M 114.449219 51.535156 C 114.449219 47.890625 112.050781 44.933594 109.09375 44.933594 C 106.132812 44.933594 103.734375 47.890625 103.734375 51.535156 C 103.734375 55.183594 106.132812 58.140625 109.09375 58.140625 C 112.050781 58.140625 114.449219 55.183594 114.449219 51.535156 Z M 114.449219 51.535156 "/>
<path style=" stroke:none;fill-rule:nonzero;fill:url(#linear9);" d="M 114.449219 51.535156 C 114.449219 47.890625 112.050781 44.933594 109.09375 44.933594 C 106.132812 44.933594 103.734375 47.890625 103.734375 51.535156 C 103.734375 55.183594 106.132812 58.140625 109.09375 58.140625 C 112.050781 58.140625 114.449219 55.183594 114.449219 51.535156 Z M 114.449219 51.535156 "/>
<path style=" stroke:none;fill-rule:nonzero;fill:rgb(94.509804%,68.627451%,54.901961%);fill-opacity:1;" d="M 107.207031 38.234375 L 108.550781 62.761719 C 108.550781 62.761719 109.144531 72.019531 118.320312 72.109375 C 129.339844 72.21875 132.695312 65.8125 134.371094 60.933594 C 136.042969 56.058594 137.554688 41.738281 134.371094 37.777344 C 131.183594 33.816406 113.25 24.070312 107.207031 38.234375 Z M 107.207031 38.234375 "/>
<path style=" stroke:none;fill-rule:nonzero;fill:rgb(24.705882%,23.921569%,33.72549%);fill-opacity:1;" d="M 114.179688 23.507812 C 109.855469 23.429688 104.917969 25.449219 102.949219 29.527344 C 101.992188 31.429688 101.941406 33.660156 102.8125 35.601562 C 102.972656 35.882812 103.097656 36.183594 103.1875 36.492188 C 103.230469 36.835938 103.230469 37.183594 103.1875 37.527344 C 103.109375 39.210938 103.878906 40.820312 105.234375 41.820312 C 105.992188 42.371094 106.914062 42.714844 107.519531 43.425781 L 107.285156 38.859375 C 107.171875 38.347656 107.496094 37.839844 108.011719 37.722656 L 110.914062 36.367188 C 110.914062 36.367188 111.8125 37.023438 111.921875 37.074219 C 112.40625 37.28125 112.925781 37.378906 113.449219 37.367188 C 114.585938 37.394531 115.726562 37.328125 116.855469 37.175781 C 119.292969 36.828125 121.625 35.933594 123.902344 35.046875 C 123.828125 35.753906 123.523438 36.414062 123.035156 36.925781 L 130.441406 38.359375 C 131.527344 39.851562 132.402344 41.484375 133.042969 43.214844 C 133.554688 44.566406 133.890625 45.980469 134.046875 47.417969 C 134.242188 49.375 134.058594 51.347656 133.507812 53.234375 C 134.011719 52.851562 134.449219 52.390625 134.8125 51.871094 C 135.484375 52.335938 136.222656 52.6875 137.007812 52.914062 C 137.171875 52.976562 137.347656 52.988281 137.519531 52.957031 C 137.882812 52.859375 137.957031 52.429688 137.996094 52.085938 C 138.292969 49.007812 140.582031 46.40625 141.632812 43.46875 C 142.90625 39.910156 142.261719 35.90625 140.3125 32.609375 C 139.738281 31.566406 138.953125 30.648438 138.011719 29.917969 C 134.597656 27.417969 129.75 28.5625 125.859375 27.257812 C 124.007812 26.636719 122.519531 25.457031 120.75 24.679688 C 118.78125 23.84375 116.320312 23.542969 114.179688 23.507812 Z M 114.179688 23.507812 "/>
<path style=" stroke:none;fill-rule:nonzero;fill:url(#linear10);" d="M 114.179688 23.507812 C 109.855469 23.429688 104.917969 25.449219 102.949219 29.527344 C 101.992188 31.429688 101.941406 33.660156 102.8125 35.601562 C 102.972656 35.882812 103.097656 36.183594 103.1875 36.492188 C 103.230469 36.835938 103.230469 37.183594 103.1875 37.527344 C 103.109375 39.210938 103.878906 40.820312 105.234375 41.820312 C 105.992188 42.371094 106.914062 42.714844 107.519531 43.425781 L 107.285156 38.859375 C 107.171875 38.347656 107.496094 37.839844 108.011719 37.722656 L 110.914062 36.367188 C 110.914062 36.367188 111.8125 37.023438 111.921875 37.074219 C 112.40625 37.28125 112.925781 37.378906 113.449219 37.367188 C 114.585938 37.394531 115.726562 37.328125 116.855469 37.175781 C 119.292969 36.828125 121.625 35.933594 123.902344 35.046875 C 123.828125 35.753906 123.523438 36.414062 123.035156 36.925781 L 130.441406 38.359375 C 131.527344 39.851562 132.402344 41.484375 133.042969 43.214844 C 133.554688 44.566406 133.890625 45.980469 134.046875 47.417969 C 134.242188 49.375 134.058594 51.347656 133.507812 53.234375 C 134.011719 52.851562 134.449219 52.390625 134.8125 51.871094 C 135.484375 52.335938 136.222656 52.6875 137.007812 52.914062 C 137.171875 52.976562 137.347656 52.988281 137.519531 52.957031 C 137.882812 52.859375 137.957031 52.429688 137.996094 52.085938 C 138.292969 49.007812 140.582031 46.40625 141.632812 43.46875 C 142.90625 39.910156 142.261719 35.90625 140.3125 32.609375 C 139.738281 31.566406 138.953125 30.648438 138.011719 29.917969 C 134.597656 27.417969 129.75 28.5625 125.859375 27.257812 C 124.007812 26.636719 122.519531 25.457031 120.75 24.679688 C 118.78125 23.84375 116.320312 23.542969 114.179688 23.507812 Z M 114.179688 23.507812 "/>
<path style=" stroke:none;fill-rule:nonzero;fill:rgb(5.882353%,54.509804%,96.078431%);fill-opacity:1;" d="M 145.539062 51.613281 C 145.539062 47.710938 142.972656 44.546875 139.808594 44.546875 C 136.644531 44.546875 134.078125 47.710938 134.078125 51.613281 C 134.078125 55.515625 136.644531 58.679688 139.808594 58.679688 C 142.972656 58.679688 145.539062 55.515625 145.539062 51.613281 Z M 145.539062 51.613281 "/>
<path style=" stroke:none;fill-rule:nonzero;fill:url(#linear11);" d="M 145.539062 51.613281 C 145.539062 47.710938 142.972656 44.546875 139.808594 44.546875 C 136.644531 44.546875 134.078125 47.710938 134.078125 51.613281 C 134.078125 55.515625 136.644531 58.679688 139.808594 58.679688 C 142.972656 58.679688 145.539062 55.515625 145.539062 51.613281 Z M 145.539062 51.613281 "/>
<path style=" stroke:none;fill-rule:nonzero;fill:rgb(5.882353%,54.509804%,96.078431%);fill-opacity:1;" d="M 147.734375 51.613281 C 147.734375 47.710938 145.167969 44.546875 142.003906 44.546875 C 138.839844 44.546875 136.273438 47.710938 136.273438 51.613281 C 136.273438 55.515625 138.839844 58.679688 142.003906 58.679688 C 145.167969 58.679688 147.734375 55.515625 147.734375 51.613281 Z M 147.734375 51.613281 "/>
<path style=" stroke:none;fill-rule:nonzero;fill:rgb(5.882353%,54.509804%,96.078431%);fill-opacity:1;" d="M 142.046875 45.109375 L 139.183594 45.414062 L 138.5 45.488281 L 135.636719 31.398438 C 134.148438 25.824219 130.511719 21.539062 125.945312 19.878906 C 125.238281 19.632812 124.484375 19.542969 123.738281 19.617188 L 121.789062 19.792969 L 122.742188 19.542969 L 124.652344 19.035156 C 125.246094 18.871094 125.863281 18.796875 126.484375 18.8125 C 131.578125 18.996094 136.410156 23.105469 138.164062 28.992188 Z M 142.046875 45.109375 "/>
<path style=" stroke:none;fill-rule:nonzero;fill:url(#linear12);" d="M 142.046875 45.109375 L 139.183594 45.414062 L 138.5 45.488281 L 135.636719 31.398438 C 134.148438 25.824219 130.511719 21.539062 125.945312 19.878906 C 125.238281 19.632812 124.484375 19.542969 123.738281 19.617188 L 121.789062 19.792969 L 122.742188 19.542969 L 124.652344 19.035156 C 125.246094 18.871094 125.863281 18.796875 126.484375 18.8125 C 131.578125 18.996094 136.410156 23.105469 138.164062 28.992188 Z M 142.046875 45.109375 "/>
<path style=" stroke:none;fill-rule:nonzero;fill:rgb(5.882353%,54.509804%,96.078431%);fill-opacity:1;" d="M 142.046875 45.109375 L 139.183594 45.414062 L 136.320312 31.292969 C 134.808594 25.664062 131.136719 21.34375 126.527344 19.671875 C 125.8125 19.414062 125.050781 19.324219 124.296875 19.402344 L 122.742188 19.542969 L 124.652344 19.035156 C 125.246094 18.871094 125.863281 18.796875 126.484375 18.8125 C 131.578125 18.996094 136.410156 23.105469 138.164062 28.992188 Z M 142.046875 45.109375 "/>
<use xlink:href="#surface8" mask="url(#mask1)"/>
<path style=" stroke:none;fill-rule:nonzero;fill:url(#linear13);" d="M 42.851562 77.546875 C 42.851562 84.5625 37.167969 90.246094 30.152344 90.246094 C 23.136719 90.246094 17.453125 84.5625 17.453125 77.546875 C 17.453125 70.53125 23.136719 64.847656 30.152344 64.847656 C 37.167969 64.847656 42.851562 70.53125 42.851562 77.546875 Z M 42.851562 77.546875 "/>
<path style=" stroke:none;fill-rule:nonzero;fill:rgb(5.882353%,54.509804%,96.078431%);fill-opacity:1;" d="M 12.117188 11.664062 L 66.367188 11.664062 L 66.367188 14.71875 L 12.117188 14.71875 Z M 12.117188 11.664062 "/>
<use xlink:href="#surface11" mask="url(#mask2)"/>
<path style=" stroke:none;fill-rule:nonzero;fill:rgb(5.882353%,54.509804%,96.078431%);fill-opacity:1;" d="M 13.753906 46.59375 L 52.320312 46.59375 L 52.320312 49.648438 L 13.753906 49.648438 Z M 13.753906 46.59375 "/>
<path style=" stroke:none;fill-rule:nonzero;fill:rgb(5.882353%,54.509804%,96.078431%);fill-opacity:1;" d="M 57.59375 46.59375 L 83.410156 46.59375 L 83.410156 49.648438 L 57.59375 49.648438 Z M 57.59375 46.59375 "/>
<path style=" stroke:none;fill-rule:nonzero;fill:rgb(5.882353%,54.509804%,96.078431%);fill-opacity:1;" d="M 43.628906 27.265625 L 83.324219 27.265625 L 83.324219 29.980469 L 43.628906 29.980469 Z M 43.628906 27.265625 "/>
<use xlink:href="#surface14" mask="url(#mask3)"/>
<path style=" stroke:none;fill-rule:nonzero;fill:rgb(5.882353%,54.509804%,96.078431%);fill-opacity:1;" d="M 14.496094 27.265625 L 40.601562 27.265625 L 40.601562 29.980469 L 14.496094 29.980469 Z M 14.496094 27.265625 "/>
<path style=" stroke:none;fill-rule:nonzero;fill:rgb(5.882353%,54.509804%,96.078431%);fill-opacity:1;" d="M 25.945312 36.753906 L 83.324219 36.753906 L 83.324219 39.46875 L 25.945312 39.46875 Z M 25.945312 36.753906 "/>
<use xlink:href="#surface17" mask="url(#mask4)"/>
<use xlink:href="#surface20" mask="url(#mask5)"/>
<path style=" stroke:none;fill-rule:nonzero;fill:rgb(5.882353%,54.509804%,96.078431%);fill-opacity:1;" d="M 14.496094 41.574219 L 40.601562 41.574219 L 40.601562 44.289062 L 14.496094 44.289062 Z M 14.496094 41.574219 "/>
<path style=" stroke:none;fill-rule:nonzero;fill:rgb(5.882353%,54.509804%,96.078431%);fill-opacity:1;" d="M 14.496094 31.964844 L 31.285156 31.964844 L 31.285156 34.679688 L 14.496094 34.679688 Z M 14.496094 31.964844 "/>
<path style=" stroke:none;fill-rule:nonzero;fill:rgb(5.882353%,54.509804%,96.078431%);fill-opacity:1;" d="M 32.96875 69.199219 C 32.222656 70.109375 32.097656 71.382812 32.238281 72.539062 C 32.28125 72.746094 32.28125 72.964844 32.238281 73.171875 C 32.175781 73.347656 32.078125 73.511719 31.953125 73.648438 C 29.929688 76.164062 27.664062 78.46875 25.191406 80.539062 C 25.121094 80.605469 25.039062 80.65625 24.949219 80.691406 C 24.785156 80.726562 24.617188 80.703125 24.46875 80.625 C 23.753906 80.34375 22.988281 80.039062 22.238281 80.21875 C 21.550781 80.425781 21 80.949219 20.761719 81.625 C 20.53125 82.300781 20.492188 83.027344 20.652344 83.722656 C 21.46875 83.042969 22.316406 82.40625 23.195312 81.8125 L 24.453125 83.058594 C 24.582031 83.15625 24.664062 83.3125 24.671875 83.476562 C 24.644531 83.574219 24.59375 83.664062 24.523438 83.734375 L 22.671875 85.921875 C 23.914062 86.417969 25.328125 86.183594 26.339844 85.308594 C 27.292969 84.402344 27.4375 82.710938 26.503906 81.796875 L 33.605469 73.835938 C 34.589844 74.5625 35.941406 74.542969 36.902344 73.789062 C 37.828125 73.007812 38.292969 71.8125 38.144531 70.609375 C 37.257812 71.140625 36.441406 71.769531 35.703125 72.488281 L 34.269531 70.707031 C 34.777344 70.230469 36.738281 68.910156 35.460938 68.398438 C 34.621094 68.058594 33.511719 68.535156 32.96875 69.199219 Z M 32.96875 69.199219 "/>
<path style=" stroke:none;fill-rule:nonzero;fill:url(#linear14);" d="M 74.089844 82.070312 L 74.769531 79.898438 C 74.769531 79.898438 72.074219 77.769531 71.992188 77.90625 C 71.992188 77.90625 71.882812 76.335938 71.882812 76.335938 L 74.351562 73.710938 L 73.214844 71.742188 C 73.214844 71.742188 69.875 72.285156 69.875 72.4375 C 69.230469 71.832031 68.535156 71.28125 67.800781 70.792969 L 67.695312 67.214844 L 65.5 66.617188 C 65.5 66.617188 63.492188 69.402344 63.625 69.480469 C 63.625 69.480469 62.078125 69.804688 61.339844 70.039062 L 58.839844 67.910156 L 56.933594 69.140625 C 56.933594 69.140625 57.5 71.796875 57.722656 72.355469 C 57.191406 72.941406 56.523438 73.605469 56.523438 73.605469 L 52.960938 74.179688 L 52.65625 76.429688 C 52.65625 76.429688 55.160156 77.785156 55.648438 77.925781 C 55.660156 78.652344 55.769531 79.378906 55.984375 80.074219 L 54.039062 83.0625 L 55.503906 84.800781 C 55.503906 84.800781 57.449219 84.117188 58.292969 83.746094 C 59.078125 84.460938 60.199219 85.308594 60.199219 85.308594 L 61.097656 88.800781 L 63.367188 88.898438 C 63.367188 88.898438 64.460938 86.355469 64.574219 85.796875 C 65.304688 85.714844 66.042969 85.707031 66.773438 85.769531 L 69.964844 87.441406 L 71.566406 85.820312 C 71.101562 84.789062 70.589844 83.78125 70.023438 82.804688 C 70.226562 82.558594 70.410156 82.296875 70.570312 82.023438 Z M 63.496094 82.152344 C 61.003906 82.152344 58.980469 80.132812 58.980469 77.640625 C 58.976562 75.148438 60.996094 73.125 63.492188 73.125 C 65.984375 73.125 68.003906 75.144531 68.003906 77.636719 C 68.003906 80.128906 65.988281 82.144531 63.496094 82.152344 Z M 63.496094 82.152344 "/>
<path style=" stroke:none;fill-rule:nonzero;fill:url(#linear15);" d="M 104.125 37 C 104.972656 35.328125 106.804688 34.335938 108.648438 34.035156 C 110.496094 33.734375 112.386719 34.011719 114.230469 34.292969 C 112.441406 35.726562 107.445312 37.859375 107.351562 38.238281 C 107.285156 38.914062 107.277344 39.59375 107.328125 40.273438 C 107.394531 41.253906 107.429688 42.285156 107.421875 43.269531 C 106.960938 42.816406 106.445312 42.425781 105.886719 42.105469 C 105.40625 41.917969 104.96875 41.636719 104.597656 41.277344 C 103.613281 40.070312 103.429688 38.394531 104.125 37 Z M 104.125 37 "/>
<path style=" stroke:none;fill-rule:nonzero;fill:rgb(5.882353%,54.509804%,96.078431%);fill-opacity:1;" d="M 128.425781 68.738281 C 126.269531 68.695312 124.132812 68.339844 122.078125 67.679688 C 121.574219 67.53125 121.285156 66.996094 121.4375 66.492188 C 121.589844 65.984375 122.121094 65.699219 122.628906 65.847656 C 127.542969 67.328125 131.238281 67.132812 133.601562 65.265625 C 136.816406 62.742188 136.605469 57.933594 136.605469 57.886719 C 136.582031 57.359375 136.988281 56.910156 137.511719 56.882812 C 138.039062 56.859375 138.488281 57.265625 138.515625 57.789062 C 138.515625 58.023438 138.769531 63.644531 134.78125 66.773438 C 133.121094 68.082031 131 68.738281 128.425781 68.738281 Z M 128.425781 68.738281 "/>
<path style=" stroke:none;fill-rule:nonzero;fill:url(#linear16);" d="M 128.425781 68.738281 C 126.269531 68.695312 124.132812 68.339844 122.078125 67.679688 C 121.574219 67.53125 121.285156 66.996094 121.4375 66.492188 C 121.589844 65.984375 122.121094 65.699219 122.628906 65.847656 C 127.542969 67.328125 131.238281 67.132812 133.601562 65.265625 C 136.816406 62.742188 136.605469 57.933594 136.605469 57.886719 C 136.582031 57.359375 136.988281 56.910156 137.511719 56.882812 C 138.039062 56.859375 138.488281 57.265625 138.515625 57.789062 C 138.515625 58.023438 138.769531 63.644531 134.78125 66.773438 C 133.121094 68.082031 131 68.738281 128.425781 68.738281 Z M 128.425781 68.738281 "/>
<path style=" stroke:none;fill-rule:nonzero;fill:rgb(5.882353%,54.509804%,96.078431%);fill-opacity:1;" d="M 122.574219 64.234375 C 123.125 64.511719 123.550781 64.976562 123.78125 65.542969 C 123.992188 66.355469 123.363281 67.132812 122.714844 67.660156 C 122.15625 68.160156 121.46875 68.488281 120.734375 68.617188 C 119.65625 68.746094 118.625 68.164062 117.726562 67.546875 C 117.226562 67.242188 116.800781 66.828125 116.476562 66.339844 C 115.648438 64.878906 116.722656 63 118.128906 62.378906 C 119.6875 61.707031 121.347656 63.429688 122.574219 64.234375 Z M 122.574219 64.234375 "/>
<path style=" stroke:none;fill-rule:nonzero;fill:url(#linear17);" d="M 122.574219 64.234375 C 123.125 64.511719 123.550781 64.976562 123.78125 65.542969 C 123.992188 66.355469 123.363281 67.132812 122.714844 67.660156 C 122.15625 68.160156 121.46875 68.488281 120.734375 68.617188 C 119.65625 68.746094 118.625 68.164062 117.726562 67.546875 C 117.226562 67.242188 116.800781 66.828125 116.476562 66.339844 C 115.648438 64.878906 116.722656 63 118.128906 62.378906 C 119.6875 61.707031 121.347656 63.429688 122.574219 64.234375 Z M 122.574219 64.234375 "/>
</g>
</svg>
