<svg width="40" height="40" viewBox="0 0 40 40" fill="none" xmlns="http://www.w3.org/2000/svg">
<circle cx="20" cy="20" r="20" fill="#0164AC"/>
<ellipse cx="18.9879" cy="20" rx="18.9879" ry="20" fill="url(#paint0_linear)"/>
<path d="M14.1755 16.6654C11.2289 15.6385 7.3145 19.9458 5.72564 22.2278C5.1297 23.0834 4.68566 23.4257 5.72564 24.7949C7.02562 26.5064 8.97558 24.7949 10.0589 23.0834C11.1422 21.3719 14.1755 19.3889 16.5588 22.4416C19.2204 25.8508 19.3347 27.0472 23.492 25.2227C25.4419 24.367 28.0419 21.7997 26.9586 20.5161C25.8752 19.2325 23.7086 21.3719 20.892 22.8694C18.0754 24.367 17.8587 17.949 14.1755 16.6654Z" fill="white"/>
<path d="M27.3913 14.7398C24.9646 12.5148 21.1803 15.3816 19.5914 17.0931C18.5081 18.3767 18.7248 19.0186 19.5914 20.0883C20.4581 21.158 21.758 19.6604 24.7913 17.735C27.8246 15.8095 33.6745 26.9343 34.7578 25.8646C35.8411 24.7949 30.4245 17.521 27.3913 14.7398Z" fill="white"/>
<path d="M20.1748 9.56394C18.7514 8.41152 16.9722 10.5243 16.2606 11.7247C16.0323 12.0846 15.5489 12.8054 16.6164 13.8858C17.6839 14.9662 18.7514 14.9662 20.5307 13.5257C22.3099 12.0852 21.954 11.0045 20.1748 9.56394Z" fill="white"/>
<defs>
<linearGradient id="paint0_linear" x1="18.9879" y1="0" x2="12.4696" y2="40" gradientUnits="userSpaceOnUse">
<stop stop-color="#62B3EE"/>
<stop offset="1" stop-color="#0083E2" stop-opacity="0.44"/>
</linearGradient>
</defs>
</svg>
