<svg width="150" height="150" viewBox="0 0 150 150" fill="none" xmlns="http://www.w3.org/2000/svg">
<g clip-path="url(#clip0)">
<path d="M75 150C116.421 150 150 116.421 150 75C150 33.5786 116.421 0 75 0C33.5786 0 0 33.5786 0 75C0 116.421 33.5786 150 75 150Z" fill="#00BBC4"/>
<path d="M50.994 27.3757H50.991C43.7578 27.3757 37.894 33.2394 37.894 40.4727V91.2303C37.894 98.4635 43.7578 104.327 50.991 104.327H50.994C58.2273 104.327 64.091 98.4635 64.091 91.2303V40.4727C64.091 33.2394 58.2273 27.3757 50.994 27.3757Z" fill="#870000"/>
<path d="M112.039 32.9121C112.039 17.4849 99.5331 4.97876 84.1059 4.97876C68.6788 4.97876 56.1726 17.4849 56.1726 32.9121V84.3788C56.1726 99.8059 68.6788 112.312 84.1059 112.312C99.5331 112.312 112.039 99.8059 112.039 84.3788V32.9121Z" fill="#870000"/>
<path d="M35.9758 102.424C41.1171 102.424 45.2849 98.2564 45.2849 93.1151C45.2849 87.9739 41.1171 83.806 35.9758 83.806C30.8346 83.806 26.6667 87.9739 26.6667 93.1151C26.6667 98.2564 30.8346 102.424 35.9758 102.424Z" fill="#F9A08A"/>
<path d="M113.794 102.424C118.935 102.424 123.103 98.2564 123.103 93.1151C123.103 87.9739 118.935 83.806 113.794 83.806C108.653 83.806 104.485 87.9739 104.485 93.1151C104.485 98.2564 108.653 102.424 113.794 102.424Z" fill="#F9A08A"/>
<path d="M82.9304 116.018H67.5637V144.261H82.9304V116.018Z" fill="#F9A08A"/>
<path d="M69.0334 131.779H81.3122C83.5119 131.779 85.6215 132.653 87.1769 134.208C88.7323 135.763 89.6062 137.873 89.6062 140.073V158.891H60.7395V140.073C60.7395 137.873 61.6133 135.763 63.1687 134.208C64.7242 132.653 66.8338 131.779 69.0334 131.779Z" fill="#F0F0F0"/>
<path d="M74.8849 122.642C95.4148 122.642 112.058 103.947 112.058 80.8848C112.058 57.8228 95.4148 39.1273 74.8849 39.1273C54.355 39.1273 37.7122 57.8228 37.7122 80.8848C37.7122 103.947 54.355 122.642 74.8849 122.642Z" fill="#F9A08A"/>
<path d="M74.5273 98.788C71.0712 98.7887 67.676 97.8772 64.6849 96.1455C64.1077 95.8177 63.6013 95.3784 63.1952 94.8532C62.7892 94.3281 62.4915 93.7274 62.3194 93.0863C62.1474 92.4451 62.1044 91.7761 62.1931 91.1182C62.2817 90.4603 62.5001 89.8266 62.8357 89.2538C63.1713 88.681 63.6173 88.1806 64.1478 87.7816C64.6784 87.3826 65.2829 87.0929 65.9263 86.9295C66.5698 86.766 67.2392 86.732 67.8959 86.8295C68.5526 86.9269 69.1833 87.1538 69.7516 87.497C72.9607 89.3758 76.6243 88.9122 78.0364 87.8546C78.5631 87.4598 79.1624 87.1727 79.8 87.0095C80.4377 86.8464 81.1012 86.8104 81.7528 86.9037C82.4044 86.997 83.0312 87.2177 83.5974 87.5532C84.1637 87.8887 84.6583 88.3325 85.0531 88.8592C85.4478 89.3858 85.735 89.9851 85.8982 90.6228C86.0613 91.2604 86.0973 91.924 86.004 92.5755C85.9107 93.2271 85.69 93.8539 85.3545 94.4202C85.019 94.9864 84.5752 95.4811 84.0485 95.8758C81.4637 97.8092 78.0607 98.788 74.5273 98.788Z" fill="#FFFEF9"/>
<path d="M68.0546 142.767H60.7424V183.597H68.0546V142.767Z" fill="#F9A08A"/>
<path d="M82.297 183.594H89.6091V142.764H82.297V183.594Z" fill="#F9A08A"/>
<path d="M63.2303 60.909L58.0333 62.8211C57.4272 63.0426 56.7581 63.0152 56.1722 62.7449C55.5862 62.4746 55.1311 61.9835 54.906 61.3787C54.6844 60.7703 54.7135 60.0988 54.9868 59.5118C55.2601 58.9248 55.7554 58.4704 56.3636 58.2484L61.5576 56.3333C62.164 56.112 62.8334 56.1398 63.4195 56.4107C64.0055 56.6815 64.4604 57.1734 64.6848 57.7787C64.9066 58.3867 64.878 59.0579 64.6052 59.6448C64.3325 60.2317 63.838 60.6864 63.2303 60.909Z" fill="#7E341F"/>
<path d="M87.2092 60.909L92.4032 62.8211C93.0097 63.0427 93.6792 63.0154 94.2656 62.7451C94.8521 62.4749 95.3078 61.9837 95.5335 61.3787C95.7539 60.7722 95.7257 60.1031 95.4549 59.5173C95.1842 58.9316 94.6928 58.4765 94.088 58.2515L88.8941 56.3363C88.2868 56.1129 87.6158 56.1393 87.0279 56.4096C86.4401 56.68 85.9833 57.1723 85.7577 57.7787C85.5366 58.3864 85.5652 59.0569 85.8373 59.6435C86.1093 60.2302 86.6026 60.6852 87.2092 60.909Z" fill="#7E341F"/>
<path d="M69.1668 78.9424C69.0215 78.9428 68.8774 78.9145 68.7431 78.859C68.6087 78.8036 68.4866 78.7221 68.3838 78.6193C68.281 78.5165 68.1996 78.3944 68.1441 78.2601C68.0887 78.1257 68.0604 77.9817 68.0608 77.8363C68.0608 75.6431 67.1895 73.5396 65.6386 71.9888C64.0877 70.4379 61.9843 69.5666 59.7911 69.5666C57.5978 69.5666 55.4944 70.4379 53.9435 71.9888C52.3926 73.5396 51.5214 75.6431 51.5214 77.8363C51.5065 78.12 51.3833 78.3873 51.1773 78.5828C50.9712 78.7784 50.6979 78.8875 50.4138 78.8875C50.1297 78.8875 49.8564 78.7784 49.6503 78.5828C49.4442 78.3873 49.321 78.12 49.3062 77.8363C49.2825 76.4446 49.5362 75.0622 50.0524 73.7695C50.5686 72.4769 51.3371 71.3 52.3129 70.3075C53.2887 69.3149 54.4524 68.5266 55.736 67.9885C57.0197 67.4504 58.3976 67.1732 59.7895 67.1732C61.1814 67.1732 62.5594 67.4504 63.8431 67.9885C65.1267 68.5266 66.2904 69.3149 67.2662 70.3075C68.242 71.3 69.0104 72.4769 69.5267 73.7695C70.0429 75.0622 70.2965 76.4446 70.2729 77.8363C70.2733 77.9817 70.2449 78.1257 70.1895 78.2601C70.1341 78.3944 70.0526 78.5165 69.9498 78.6193C69.847 78.7221 69.7249 78.8036 69.5906 78.859C69.4562 78.9145 69.3122 78.9428 69.1668 78.9424Z" fill="#7E341F"/>
<path d="M98.1819 78.9424C98.0366 78.9428 97.8926 78.9145 97.7582 78.859C97.6238 78.8036 97.5017 78.7221 97.3989 78.6193C97.2962 78.5165 97.2147 78.3944 97.1593 78.2601C97.1038 78.1257 97.0755 77.9817 97.0759 77.8363C97.0759 76.7503 96.862 75.675 96.4464 74.6716C96.0308 73.6683 95.4217 72.7567 94.6537 71.9888C93.8858 71.2208 92.9742 70.6117 91.9709 70.1961C90.9675 69.7805 89.8922 69.5666 88.8062 69.5666C87.7202 69.5666 86.6448 69.7805 85.6415 70.1961C84.6382 70.6117 83.7265 71.2208 82.9586 71.9888C82.1907 72.7567 81.5816 73.6683 81.166 74.6716C80.7504 75.675 80.5365 76.7503 80.5365 77.8363C80.5216 78.12 80.3985 78.3873 80.1924 78.5828C79.9863 78.7784 79.713 78.8875 79.4289 78.8875C79.1448 78.8875 78.8715 78.7784 78.6654 78.5828C78.4594 78.3873 78.3362 78.12 78.3213 77.8363C78.2977 76.4446 78.5514 75.0622 79.0676 73.7695C79.5838 72.4769 80.3522 71.3 81.328 70.3075C82.3038 69.3149 83.4675 68.5266 84.7512 67.9885C86.0348 67.4504 87.4128 67.1732 88.8047 67.1732C90.1966 67.1732 91.5745 67.4504 92.8582 67.9885C94.1418 68.5266 95.3055 69.3149 96.2813 70.3075C97.2571 71.3 98.0256 72.4769 98.5418 73.7695C99.058 75.0622 99.3117 76.4446 99.288 77.8363C99.2884 77.9817 99.2601 78.1257 99.2046 78.2601C99.1492 78.3944 99.0677 78.5165 98.9649 78.6193C98.8622 78.7221 98.7401 78.8036 98.6057 78.859C98.4713 78.9145 98.3273 78.9428 98.1819 78.9424Z" fill="#7E341F"/>
</g>
<defs>
<clipPath id="clip0">
<rect width="150" height="150" fill="white"/>
</clipPath>
</defs>
</svg>
