<svg width="150" height="150" viewBox="0 0 150 150" fill="none" xmlns="http://www.w3.org/2000/svg">
<g clip-path="url(#clip0)">
<path d="M75 150C116.421 150 150 116.421 150 75C150 33.5786 116.421 0 75 0C33.5786 0 0 33.5786 0 75C0 116.421 33.5786 150 75 150Z" fill="#FF7E25"/>
<path d="M41.1331 188.809H30.3513V179.888C30.3513 167.961 33.8331 157.658 40.421 150.088C46.8634 142.685 55.7756 138.609 65.515 138.609V149.394C51.1604 149.394 41.1331 161.933 41.1331 179.888V188.809Z" fill="#A19289"/>
<path d="M108.866 188.809H119.648V179.888C119.648 167.961 116.166 157.658 109.579 150.088C103.136 142.685 94.224 138.609 84.4846 138.609V149.394C98.8392 149.394 108.866 161.933 108.866 179.888V188.809Z" fill="#A19289"/>
<path d="M95.6574 144.642V182.685H54.3423V144.642C54.3423 139.867 61.2847 136 66.0574 136H83.9362C88.715 136 95.6574 139.867 95.6574 144.642Z" fill="#A19289"/>
<path d="M63.8544 139.309H86.1423C88.4702 139.309 90.3574 137.422 90.3574 135.094V135.091C90.3574 132.763 88.4702 130.876 86.1423 130.876H63.8544C61.5264 130.876 59.6392 132.763 59.6392 135.091V135.094C59.6392 137.422 61.5264 139.309 63.8544 139.309Z" fill="#BD0000"/>
<path d="M100.952 87.9061C104.654 88.545 108.459 87.6925 111.535 85.5348C114.61 83.3771 116.707 80.0897 117.367 76.391L119.858 62.2213C120.497 58.5187 119.645 54.7135 117.487 51.6375C115.329 48.5615 112.042 46.4649 108.342 45.8061C104.64 45.1664 100.835 46.0186 97.7587 48.1764C94.6827 50.3342 92.5861 53.6221 91.9273 57.3213L89.4364 71.491C88.7966 75.1935 89.6488 78.9987 91.8066 82.0747C93.9644 85.1507 97.2523 87.2473 100.952 87.9061Z" fill="#AC5B0F"/>
<path d="M52.6849 88.1001C56.4173 87.6794 59.8317 85.7988 62.1823 82.8691C64.5328 79.9394 65.6286 76.1986 65.2303 72.4637L63.6606 58.1637C63.2392 54.4316 61.3584 51.0177 58.4289 48.6673C55.4994 46.3169 51.759 45.2208 48.0243 45.6182C44.2921 46.0397 40.8783 47.9205 38.5279 50.85C36.1775 53.7795 35.0814 57.5198 35.4788 61.2546L37.0485 75.5546C37.4677 79.2877 39.3479 82.703 42.2779 85.0539C45.208 87.4048 48.9496 88.5 52.6849 88.1001Z" fill="#AC5B0F"/>
<path d="M87.4118 96.0849H87.4148C103.602 96.0849 116.724 82.9628 116.724 66.7758V43.6152C116.724 27.4282 103.602 14.3061 87.4148 14.3061H87.4118C71.2248 14.3061 58.1027 27.4282 58.1027 43.6152V66.7758C58.1027 82.9628 71.2248 96.0849 87.4118 96.0849Z" fill="#AC5B0F"/>
<path d="M74.9997 127.739C94.9573 127.739 111.285 111.412 111.285 91.4576V74.1849C111.285 54.2273 94.9573 39.2637 74.9997 39.2637C55.0421 39.2637 38.7148 54.2273 38.7148 74.1849V91.4576C38.7148 111.412 55.0421 127.739 74.9997 127.739Z" fill="#FFDACD"/>
<path d="M117.701 98.452C121.76 94.908 122.178 88.744 118.634 84.6843C115.09 80.6246 108.927 80.2065 104.867 83.7505C100.807 87.2945 100.389 93.4585 103.933 97.5182C107.477 101.578 113.641 101.996 117.701 98.452Z" fill="#FFDACD"/>
<path d="M47.5852 95.183C49.8328 90.2852 47.6844 84.4926 42.7865 82.245C37.8886 79.9974 32.096 82.1459 29.8484 87.0438C27.6008 91.9416 29.7493 97.7342 34.6472 99.9818C39.5451 102.229 45.3376 100.081 47.5852 95.183Z" fill="#FFDACD"/>
<path d="M72.3484 72.4243C57.8362 72.4243 44.7514 66.1516 35.3787 54.6607C33.9514 52.9115 32.8827 50.8983 32.2335 48.7361C31.5843 46.5739 31.3673 44.305 31.5949 42.059C31.8226 39.8129 32.4904 37.6337 33.5602 35.6457C34.6301 33.6578 36.081 31.9 37.8302 30.4728C39.5793 29.0455 41.5925 27.9768 43.7547 27.3276C45.9169 26.6784 48.1858 26.4614 50.4318 26.6891C52.6779 26.9167 54.8571 27.5845 56.8451 28.6543C58.833 29.7242 60.5908 31.1751 62.0181 32.9243C64.9181 36.4788 68.4332 38.1697 72.7878 38.0334C78.4181 37.8849 82.8574 34.8606 83.7605 33.6243C85.0851 31.7821 86.7613 30.2204 88.6924 29.0291C90.6234 27.8379 92.7713 27.0407 95.0119 26.6836C97.2526 26.3265 99.5418 26.4164 101.748 26.9483C103.953 27.4801 106.032 28.4434 107.864 29.7825C109.695 31.1216 111.244 32.8101 112.42 34.7505C113.596 36.6909 114.376 38.845 114.715 41.0884C115.055 43.3318 114.947 45.6202 114.397 47.8217C113.848 50.0232 112.869 52.0942 111.515 53.9152C103.597 64.7516 88.7544 72.0091 73.6968 72.4C73.2484 72.4243 72.7968 72.4243 72.3484 72.4243Z" fill="#AC5B0F"/>
<path d="M96.7914 93.6942C98.737 91.7487 98.737 88.5944 96.7914 86.6489C94.8459 84.7034 91.6916 84.7034 89.7461 86.6489C87.8005 88.5944 87.8005 91.7487 89.7461 93.6942C91.6916 95.6398 94.8459 95.6398 96.7914 93.6942Z" fill="#7E341F"/>
<path d="M57.8703 95.0211C60.5481 94.3891 62.2065 91.7059 61.5745 89.0281C60.9425 86.3503 58.2593 84.6919 55.5815 85.3239C52.9037 85.9559 51.2453 88.6391 51.8773 91.3169C52.5093 93.9947 55.1925 95.6531 57.8703 95.0211Z" fill="#7E341F"/>
<path d="M87.1998 102.991H62.7998C62.7998 102.991 66.721 113.067 74.9998 113.067C83.2786 113.067 87.1998 102.991 87.1998 102.991Z" fill="#FFFEF9"/>
<path d="M90.9088 81.4213L95.6572 81.7485C96.1752 81.7827 96.6856 81.6108 97.0773 81.2702C97.4689 80.9296 97.7101 80.448 97.7482 79.9304C97.7823 79.4124 97.6104 78.902 97.2698 78.5103C96.9292 78.1187 96.4476 77.8775 95.93 77.8395L91.1845 77.5092C90.6668 77.4758 90.1568 77.648 89.7653 77.9884C89.3738 78.3289 89.1324 78.81 89.0936 79.3273C89.0586 79.8453 89.2297 80.356 89.5697 80.7483C89.9098 81.1406 90.3911 81.3825 90.9088 81.4213Z" fill="#AC5B0F"/>
<path d="M59.0907 81.4213L54.3423 81.7485C53.8243 81.7827 53.3139 81.6108 52.9222 81.2702C52.5306 80.9296 52.2894 80.448 52.2513 79.9304C52.2172 79.4124 52.3891 78.902 52.7297 78.5103C53.0703 78.1187 53.5519 77.8775 54.0695 77.8395L58.815 77.5092C59.3327 77.4758 59.8427 77.648 60.2342 77.9884C60.6257 78.3289 60.8671 78.81 60.9059 79.3273C60.9409 79.8453 60.7698 80.356 60.4298 80.7483C60.0897 81.1406 59.6084 81.3825 59.0907 81.4213Z" fill="#AC5B0F"/>
<path d="M76.7546 142.679H73.2455C71.6751 142.679 70.169 142.055 69.0585 140.945C67.9481 139.834 67.3243 138.328 67.3243 136.758V122.746H82.6758V136.749C82.677 137.527 82.5247 138.298 82.2277 139.017C81.9306 139.737 81.4947 140.391 80.9447 140.941C80.3948 141.492 79.7416 141.929 79.0226 142.227C78.3036 142.525 77.5329 142.679 76.7546 142.679Z" fill="#FFDACD"/>
<path d="M48.3181 196.782V150.194C48.3181 135.503 67.3242 134.133 67.3242 134.133L67.103 196.788L48.3181 196.782Z" fill="#BD0000"/>
<path d="M101.682 196.782V150.194C101.682 135.503 82.6758 134.133 82.6758 134.133L82.897 196.788L101.682 196.782Z" fill="#BD0000"/>
</g>
<defs>
<clipPath id="clip0">
<rect width="150" height="150" fill="white"/>
</clipPath>
</defs>
</svg>
