<svg width="150" height="150" viewBox="0 0 150 150" fill="none" xmlns="http://www.w3.org/2000/svg">
<g clip-path="url(#clip0)">
<path d="M75.3614 150.723C116.982 150.723 150.723 116.982 150.723 75.3614C150.723 33.7405 116.982 0 75.3614 0C33.7405 0 0 33.7405 0 75.3614C0 116.982 33.7405 150.723 75.3614 150.723Z" fill="#00BBC4"/>
<path d="M48.6244 168.079H40.3818V161.258C40.3818 142.989 51.6845 129.713 67.2562 129.713V137.956C56.2945 137.956 48.6244 147.538 48.6244 161.258V168.079Z" fill="#FFFEF9"/>
<path d="M109.367 168.079H101.124V161.258C101.124 147.538 93.4635 137.956 82.4927 137.956V129.713C98.0643 129.713 109.367 142.98 109.367 161.258V168.079Z" fill="#FFFEF9"/>
<path d="M90.7386 136.311V165.384H59.175V136.311C59.175 132.657 64.4793 129.707 68.1271 129.707H81.7957C85.4435 129.713 90.7386 132.664 90.7386 136.311Z" fill="#FFFEF9"/>
<path d="M74.9597 139.737C74.9597 139.737 66.3792 135.897 66.3792 131.159V114.528H83.5372V131.159C83.5402 135.897 74.9597 139.737 74.9597 139.737Z" fill="#F9C4A1"/>
<path d="M74.9598 105.497C62.6523 105.497 51.4257 102.303 43.3506 96.5023C34.3773 90.0562 29.6333 80.9154 29.6333 70.0694V51.9735C29.6333 29.7457 49.5439 12.3532 74.9598 12.3532C100.376 12.3532 120.274 29.7579 120.274 51.9735V70.0694C120.274 80.9154 115.533 90.0562 106.572 96.5023C98.4939 102.309 87.2673 105.497 74.9598 105.497Z" fill="#FF9F00"/>
<path d="M43.0593 82.1138C43.8129 77.4301 40.6269 73.0223 35.9432 72.2687C31.2594 71.5152 26.8517 74.7012 26.0981 79.3849C25.3445 84.0686 28.5305 88.4764 33.2143 89.23C37.898 89.9836 42.3058 86.7975 43.0593 82.1138Z" fill="#F9C4A1"/>
<path d="M123.645 84.0309C125.46 79.6481 123.379 74.6234 118.996 72.808C114.613 70.9925 109.589 73.0738 107.773 77.4567C105.958 81.8395 108.039 86.8642 112.422 88.6796C116.805 90.4951 121.829 88.4138 123.645 84.0309Z" fill="#F9C4A1"/>
<path d="M74.9597 122.908C52.7501 122.908 34.5781 110.576 34.5781 88.3662V68.2059C34.5781 45.9964 52.7501 28.9936 74.9597 28.9936C97.1692 28.9814 115.344 45.9781 115.344 68.2059V88.3784C115.344 110.576 97.1692 122.908 74.9597 122.908Z" fill="#F9C4A1"/>
<path d="M74.9596 103.125C67.6062 103.125 60.5298 100.725 55.0307 96.3652C53.7463 95.3448 52.9198 93.856 52.7331 92.2263C52.5464 90.5966 53.0147 88.9594 54.035 87.675C55.0554 86.3906 56.5442 85.5641 58.1739 85.3774C59.8036 85.1907 61.4408 85.659 62.7252 86.6793C66.0472 89.3132 70.3984 90.7626 74.9749 90.7626C79.4813 90.7626 83.7838 89.3497 87.0875 86.7859C88.3828 85.7809 90.0243 85.3316 91.6509 85.5369C93.2775 85.7422 94.7559 86.5852 95.7609 87.8805C96.7659 89.1759 97.2152 90.8174 97.0099 92.444C96.8046 94.0705 95.9616 95.549 94.6663 96.554C89.1885 100.786 82.2126 103.125 74.9596 103.125Z" fill="#FFFEF9"/>
<path d="M57.7621 71.3178C57.7621 69.6328 56.3962 68.2668 54.7111 68.2668C53.0261 68.2668 51.6602 69.6328 51.6602 71.3178V73.7842C51.6602 75.4692 53.0261 76.8352 54.7111 76.8352C56.3962 76.8352 57.7621 75.4692 57.7621 73.7842V71.3178Z" fill="#AC5B0F"/>
<path d="M95.2207 76.8352C94.4144 76.8312 93.6422 76.5092 93.072 75.939C92.5019 75.3688 92.1798 74.5967 92.1758 73.7903V71.324C92.1798 70.5176 92.5019 69.7455 93.072 69.1753C93.6422 68.6051 94.4144 68.2831 95.2207 68.2791C96.027 68.2831 96.7992 68.6051 97.3693 69.1753C97.9395 69.7455 98.2616 70.5176 98.2656 71.324V73.7903C98.2616 74.5967 97.9395 75.3688 97.3693 75.939C96.7992 76.5092 96.027 76.8312 95.2207 76.8352Z" fill="#AC5B0F"/>
<path d="M121.312 64.8352C120.425 64.9464 119.531 65.0024 118.636 65.0027H73.349C70.5008 65.0027 67.6805 64.4417 65.0491 63.3517C62.4176 62.2617 60.0267 60.6642 58.0127 58.6502C55.9987 56.6362 54.4011 54.2452 53.3111 51.6138C52.2212 48.9824 51.6602 46.162 51.6602 43.3138C51.6602 40.4656 52.2212 37.6453 53.3111 35.0138C54.4011 32.3824 55.9987 29.9915 58.0127 27.9775C60.0267 25.9635 62.4176 24.3659 65.0491 23.2759C67.6805 22.1859 70.5008 21.6249 73.349 21.6249H102.212C113.527 31.4052 120.956 46.8611 121.312 64.8352Z" fill="#FF9F00"/>
<path d="M86.7008 39.0053H112.561C114.864 38.9988 117.071 38.0812 118.699 36.4529C120.327 34.8245 121.245 32.6179 121.251 30.3151C121.247 28.0112 120.33 25.803 118.701 24.1734C117.073 22.5437 114.865 21.6253 112.561 21.6188H86.7008C84.399 21.6261 82.1936 22.5436 80.5661 24.1712C78.9385 25.7988 78.0209 28.0042 78.0137 30.306C78.0177 32.6098 78.9338 34.8183 80.5618 36.4486C82.1897 38.0788 84.3969 38.998 86.7008 39.0053Z" fill="#FF9F00"/>
<path d="M121.328 39.0053H82.6939C75.5166 39.0053 69.6982 44.8237 69.6982 52.001V52.004C69.6982 59.1813 75.5166 64.9997 82.6939 64.9997H121.328C128.505 64.9997 134.323 59.1813 134.323 52.004V52.001C134.323 44.8237 128.505 39.0053 121.328 39.0053Z" fill="#FF9F00"/>
</g>
<defs>
<clipPath id="clip0">
<rect width="150" height="150" fill="white"/>
</clipPath>
</defs>
</svg>
